<?xml version="1.0" encoding="UTF-8" standalone="no"?>
<!-- Created with Inkscape (http://www.inkscape.org/) -->

<svg
   xmlns:dc="http://purl.org/dc/elements/1.1/"
   xmlns:cc="http://creativecommons.org/ns#"
   xmlns:rdf="http://www.w3.org/1999/02/22-rdf-syntax-ns#"
   xmlns:svg="http://www.w3.org/2000/svg"
   xmlns="http://www.w3.org/2000/svg"
   xmlns:sodipodi="http://sodipodi.sourceforge.net/DTD/sodipodi-0.dtd"
   xmlns:inkscape="http://www.inkscape.org/namespaces/inkscape"
   version="1.1"
   width="24"
   height="24"
   id="svg2"
   inkscape:version="0.48.5 r10040"
   sodipodi:docname="calendar-ban.svg">
  <sodipodi:namedview
     pagecolor="#ffffff"
     bordercolor="#666666"
     borderopacity="1"
     objecttolerance="10"
     gridtolerance="10"
     guidetolerance="10"
     inkscape:pageopacity="0"
     inkscape:pageshadow="2"
     inkscape:window-width="1920"
     inkscape:window-height="1056"
     id="namedview3192"
     showgrid="true"
     inkscape:zoom="39.333334"
     inkscape:cx="10.624008"
     inkscape:cy="11.399011"
     inkscape:window-x="1920"
     inkscape:window-y="24"
     inkscape:window-maximized="1"
     inkscape:current-layer="layer1">
    <inkscape:grid
       type="xygrid"
       id="grid4181"
       empspacing="4"
       visible="true"
       enabled="true"
       snapvisiblegridlinesonly="true" />
  </sodipodi:namedview>
  <defs
     id="defs4" />
  <metadata
     id="metadata7">
    <rdf:RDF>
      <cc:Work
         rdf:about="">
        <dc:format>image/svg+xml</dc:format>
        <dc:type
           rdf:resource="http://purl.org/dc/dcmitype/StillImage" />
        <dc:title />
      </cc:Work>
    </rdf:RDF>
  </metadata>
  <g
     transform="translate(0,-1028.3622)"
     id="layer1">
    <path
       d="M 5,1032.3622 C 3.895431,1032.3622 3,1033.2576 3,1034.3622 L 3,1048.3622 C 3,1049.4668 3.89543,1050.3622 5,1050.3622 L 11,1050.3622 13,1050.3622 19,1050.3622 C 20.10457,1050.3622 21,1049.4668 21,1048.3622 L 21,1034.3622 C 21,1033.2576 20.104569,1032.3622 19,1032.3622 L 13,1032.3622 11,1032.3622 5,1032.3622 z"
       inkscape:connector-curvature="0"
       id="path2987-6-0-1"
       style="fill:#bdc3c7;fill-opacity:1;fill-rule:nonzero;stroke:none" />
    <path
       d="M 5,3 C 3.895431,3 3,3.8954 3,5 L 3,19 C 3,20.1046 3.89543,21 5,21 L 11,21 13,21 19,21 C 20.10457,21 21,20.1046 21,19 L 21,5 C 21,3.8954 20.104569,3 19,3 L 13,3 11,3 5,3 z"
       inkscape:connector-curvature="0"
       transform="translate(0,1028.3622)"
       id="path2987-6-0"
       style="fill:#ecf0f1;fill-opacity:1;fill-rule:nonzero;stroke:none" />
    <path
       style="fill:#e74c3c;fill-opacity:1;fill-rule:nonzero;stroke:none"
       d="M 5 3 C 3.895431 3 3 3.8954 3 5 L 3 8 L 3 9 L 21 9 L 21 8 L 21 5 C 21 3.8954 20.104569 3 19 3 L 13 3 L 11 3 L 5 3 z "
       transform="translate(0,1028.3622)"
       id="path2987-6-0-3" />
    <path
       d="M 7,5.5 A 1.5,1.5 0 1 1 4,5.5 1.5,1.5 0 1 1 7,5.5 z"
       transform="translate(0.5,1028.3622)"
       id="path3201"
       style="fill:#c0392b;fill-opacity:1;fill-rule:nonzero;stroke:none" />
    <path
       d="M 7,5.5 A 1.5,1.5 0 1 1 4,5.5 1.5,1.5 0 1 1 7,5.5 z"
       transform="translate(12.5,1028.3622)"
       id="path3201-2"
       style="fill:#c0392b;fill-opacity:1;fill-rule:nonzero;stroke:none" />
    <path
       d="M 5,1039.3622 5,1041.3622 7,1041.3622 7,1039.3622 5,1039.3622 z M 8,1039.3622 8,1041.3622 10,1041.3622 10,1039.3622 8,1039.3622 z M 11,1039.3622 11,1041.3622 13,1041.3622 13,1039.3622 11,1039.3622 z M 14,1039.3622 14,1041.3622 16,1041.3622 16,1039.3622 14,1039.3622 z M 17,1039.3622 17,1041.3622 19,1041.3622 19,1039.3622 17,1039.3622 z"
       inkscape:connector-curvature="0"
       id="rect3260"
       style="fill:#bdc3c7;fill-opacity:1;fill-rule:nonzero;stroke:none" />
    <path
       d="M 5,1042.3622 5,1044.3622 7,1044.3622 7,1042.3622 5,1042.3622 z M 8,1042.3622 8,1044.3622 10,1044.3622 10,1042.3622 8,1042.3622 z M 11,1042.3622 11,1044.3622 13,1044.3622 13,1042.3622 11,1042.3622 z M 14,1042.3622 14,1044.3622 16,1044.3622 16,1042.3622 14,1042.3622 z M 17,1042.3622 17,1044.3622 19,1044.3622 19,1042.3622 17,1042.3622 z"
       inkscape:connector-curvature="0"
       id="rect3260-6"
       style="fill:#bdc3c7;fill-opacity:1;fill-rule:nonzero;stroke:none" />
    <path
       d="M 5,1045.3622 5,1047.3622 7,1047.3622 7,1045.3622 5,1045.3622 z M 8,1045.3622 8,1047.3622 10,1047.3622 10,1045.3622 8,1045.3622 z M 11,1045.3622 11,1047.3622 13,1047.3622 13,1045.3622 11,1045.3622 z M 14,1045.3622 14,1047.3622 16,1047.3622 16,1045.3622 14,1045.3622 z M 17,1045.3622 17,1047.3622 19,1047.3622 19,1045.3622 17,1045.3622 z"
       inkscape:connector-curvature="0"
       id="rect3260-6-1"
       style="fill:#bdc3c7;fill-opacity:1;fill-rule:nonzero;stroke:none" />
    <path
       style="fill:#95a5a6;fill-opacity:1;fill-rule:nonzero;stroke:none"
       d="M 6 1 C 5.4477153 1 5 1.4477153 5 2 L 5 5 C 5 5.5522847 5.4477153 6 6 6 C 6.5522847 6 7 5.5522847 7 5 L 7 2 C 7 1.4477153 6.5522847 1 6 1 z M 18 1 C 17.447715 1 17 1.4477 17 2 L 17 5 C 17 5.5523 17.447715 6 18 6 C 18.552285 6 19 5.5523 19 5 L 19 2 C 19 1.4477 18.552285 1 18 1 z "
       transform="translate(0,1028.3622)"
       id="rect3118" />
    <path
       style="fill:#bdc3c7;fill-opacity:1;fill-rule:nonzero;stroke:none"
       d="M 6,1029.3622 C 5.4477153,1029.3622 5,1029.8099 5,1030.3622 L 5,1032.3622 7,1032.3622 7,1030.3622 C 7,1029.8099 6.5522847,1029.3622 6,1029.3622 z M 18,1029.3622 C 17.447715,1029.3622 17,1029.8099 17,1030.3622 L 17,1032.3622 19,1032.3622 19,1030.3622 C 19,1029.8099 18.552285,1029.3622 18,1029.3622 z"
       id="rect3118-6"
       inkscape:connector-curvature="0" />
    <g
       id="layer1-0"
       inkscape:label="Layer 1"
       transform="matrix(0.54889691,0,0,0.54709392,11.924268,477.16834)">
      <path
         id="rect3046-3"
         d="m 12,1031.3622 c -2.248203,0 -4.329829,0.7477 -6,2 -2.4327053,1.8241 -4,4.7254 -4,8 0,5.5228 4.477152,10 10,10 5.522847,0 10,-4.4772 10,-10 0,-5.5228 -4.477153,-10 -10,-10 z m 0,3 c 3.865993,0 7,3.134 7,7 0,1.4242 -0.425666,2.7383 -1.15625,3.8438 l -9.6875,-9.6875 c 1.105444,-0.7306 2.419522,-1.1563 3.84375,-1.1563 z m -5.9375,3.3125 9.625,9.625 c -1.07297,0.6688 -2.330059,1.0625 -3.6875,1.0625 -3.865993,0 -7,-3.134 -7,-7 0,-1.3574 0.393712,-2.6145 1.0625,-3.6875 z"
         style="fill:#c0392b;fill-opacity:1;fill-rule:nonzero;stroke:none"
         inkscape:connector-curvature="0" />
      <path
         id="rect3046"
         transform="translate(0,1028.3622)"
         d="M 12,2 C 9.7517966,2 7.6701712,2.7476592 6,4 3.5672947,5.8241101 2,8.7253841 2,12 2,17.5228 6.4771525,22 12,22 17.522847,22 22,17.5228 22,12 22,6.4772 17.522847,2 12,2 z m 0,3 c 3.865993,0 7,3.134 7,7 0,1.42423 -0.425666,2.738307 -1.15625,3.84375 L 8.15625,6.15625 C 9.2616936,5.4256671 10.575772,5 12,5 z m -5.9375,3.3125 9.625,9.625 C 14.61453,18.606287 13.357441,19 12,19 8.1340068,19 5,15.866 5,12 5,10.642556 5.3937122,9.3854697 6.0625,8.3125 z"
         style="fill:#e74c3c;fill-opacity:1;fill-rule:nonzero;stroke:none"
         inkscape:connector-curvature="0" />
    </g>
  </g>
</svg>
