<?xml version="1.0" encoding="UTF-8" standalone="no"?>
<!-- Created with Inkscape (http://www.inkscape.org/) -->

<svg
   xmlns:dc="http://purl.org/dc/elements/1.1/"
   xmlns:cc="http://creativecommons.org/ns#"
   xmlns:rdf="http://www.w3.org/1999/02/22-rdf-syntax-ns#"
   xmlns:svg="http://www.w3.org/2000/svg"
   xmlns="http://www.w3.org/2000/svg"
   xmlns:sodipodi="http://sodipodi.sourceforge.net/DTD/sodipodi-0.dtd"
   xmlns:inkscape="http://www.inkscape.org/namespaces/inkscape"
   version="1.1"
   width="24"
   height="24"
   id="svg2"
   inkscape:version="0.48.5 r10040"
   sodipodi:docname="calendar-warning.svg">
  <sodipodi:namedview
     pagecolor="#ffffff"
     bordercolor="#666666"
     borderopacity="1"
     objecttolerance="10"
     gridtolerance="10"
     guidetolerance="10"
     inkscape:pageopacity="0"
     inkscape:pageshadow="2"
     inkscape:window-width="1920"
     inkscape:window-height="1056"
     id="namedview3192"
     showgrid="true"
     inkscape:zoom="16"
     inkscape:cx="6.7476819"
     inkscape:cy="16.806202"
     inkscape:window-x="1920"
     inkscape:window-y="24"
     inkscape:window-maximized="1"
     inkscape:current-layer="layer1"
     inkscape:snap-grids="false">
    <inkscape:grid
       type="xygrid"
       id="grid4181"
       empspacing="4"
       visible="true"
       enabled="true"
       snapvisiblegridlinesonly="true" />
  </sodipodi:namedview>
  <defs
     id="defs4" />
  <metadata
     id="metadata7">
    <rdf:RDF>
      <cc:Work
         rdf:about="">
        <dc:format>image/svg+xml</dc:format>
        <dc:type
           rdf:resource="http://purl.org/dc/dcmitype/StillImage" />
        <dc:title />
      </cc:Work>
    </rdf:RDF>
  </metadata>
  <g
     transform="translate(0,-1028.3622)"
     id="layer1">
    <path
       d="M 5,1032.3622 C 3.895431,1032.3622 3,1033.2576 3,1034.3622 L 3,1048.3622 C 3,1049.4668 3.89543,1050.3622 5,1050.3622 L 11,1050.3622 13,1050.3622 19,1050.3622 C 20.10457,1050.3622 21,1049.4668 21,1048.3622 L 21,1034.3622 C 21,1033.2576 20.104569,1032.3622 19,1032.3622 L 13,1032.3622 11,1032.3622 5,1032.3622 z"
       inkscape:connector-curvature="0"
       id="path2987-6-0-1"
       style="fill:#bdc3c7;fill-opacity:1;fill-rule:nonzero;stroke:none" />
    <path
       d="M 5,3 C 3.895431,3 3,3.8954 3,5 L 3,19 C 3,20.1046 3.89543,21 5,21 L 11,21 13,21 19,21 C 20.10457,21 21,20.1046 21,19 L 21,5 C 21,3.8954 20.104569,3 19,3 L 13,3 11,3 5,3 z"
       inkscape:connector-curvature="0"
       transform="translate(0,1028.3622)"
       id="path2987-6-0"
       style="fill:#ecf0f1;fill-opacity:1;fill-rule:nonzero;stroke:none" />
    <path
       style="fill:#e74c3c;fill-opacity:1;fill-rule:nonzero;stroke:none"
       d="M 5 3 C 3.895431 3 3 3.8954 3 5 L 3 8 L 3 9 L 21 9 L 21 8 L 21 5 C 21 3.8954 20.104569 3 19 3 L 13 3 L 11 3 L 5 3 z "
       transform="translate(0,1028.3622)"
       id="path2987-6-0-3" />
    <path
       d="M 7,5.5 A 1.5,1.5 0 1 1 4,5.5 1.5,1.5 0 1 1 7,5.5 z"
       transform="translate(0.5,1028.3622)"
       id="path3201"
       style="fill:#c0392b;fill-opacity:1;fill-rule:nonzero;stroke:none" />
    <path
       d="M 7,5.5 A 1.5,1.5 0 1 1 4,5.5 1.5,1.5 0 1 1 7,5.5 z"
       transform="translate(12.5,1028.3622)"
       id="path3201-2"
       style="fill:#c0392b;fill-opacity:1;fill-rule:nonzero;stroke:none" />
    <path
       d="M 5,1039.3622 5,1041.3622 7,1041.3622 7,1039.3622 5,1039.3622 z M 8,1039.3622 8,1041.3622 10,1041.3622 10,1039.3622 8,1039.3622 z M 11,1039.3622 11,1041.3622 13,1041.3622 13,1039.3622 11,1039.3622 z M 14,1039.3622 14,1041.3622 16,1041.3622 16,1039.3622 14,1039.3622 z M 17,1039.3622 17,1041.3622 19,1041.3622 19,1039.3622 17,1039.3622 z"
       inkscape:connector-curvature="0"
       id="rect3260"
       style="fill:#bdc3c7;fill-opacity:1;fill-rule:nonzero;stroke:none" />
    <path
       d="M 5,1042.3622 5,1044.3622 7,1044.3622 7,1042.3622 5,1042.3622 z M 8,1042.3622 8,1044.3622 10,1044.3622 10,1042.3622 8,1042.3622 z M 11,1042.3622 11,1044.3622 13,1044.3622 13,1042.3622 11,1042.3622 z M 14,1042.3622 14,1044.3622 16,1044.3622 16,1042.3622 14,1042.3622 z M 17,1042.3622 17,1044.3622 19,1044.3622 19,1042.3622 17,1042.3622 z"
       inkscape:connector-curvature="0"
       id="rect3260-6"
       style="fill:#bdc3c7;fill-opacity:1;fill-rule:nonzero;stroke:none" />
    <path
       d="M 5,1045.3622 5,1047.3622 7,1047.3622 7,1045.3622 5,1045.3622 z M 8,1045.3622 8,1047.3622 10,1047.3622 10,1045.3622 8,1045.3622 z M 11,1045.3622 11,1047.3622 13,1047.3622 13,1045.3622 11,1045.3622 z M 14,1045.3622 14,1047.3622 16,1047.3622 16,1045.3622 14,1045.3622 z M 17,1045.3622 17,1047.3622 19,1047.3622 19,1045.3622 17,1045.3622 z"
       inkscape:connector-curvature="0"
       id="rect3260-6-1"
       style="fill:#bdc3c7;fill-opacity:1;fill-rule:nonzero;stroke:none" />
    <path
       style="fill:#95a5a6;fill-opacity:1;fill-rule:nonzero;stroke:none"
       d="M 6 1 C 5.4477153 1 5 1.4477153 5 2 L 5 5 C 5 5.5522847 5.4477153 6 6 6 C 6.5522847 6 7 5.5522847 7 5 L 7 2 C 7 1.4477153 6.5522847 1 6 1 z M 18 1 C 17.447715 1 17 1.4477 17 2 L 17 5 C 17 5.5523 17.447715 6 18 6 C 18.552285 6 19 5.5523 19 5 L 19 2 C 19 1.4477 18.552285 1 18 1 z "
       transform="translate(0,1028.3622)"
       id="rect3118" />
    <path
       style="fill:#bdc3c7;fill-opacity:1;fill-rule:nonzero;stroke:none"
       d="M 6,1029.3622 C 5.4477153,1029.3622 5,1029.8099 5,1030.3622 L 5,1032.3622 7,1032.3622 7,1030.3622 C 7,1029.8099 6.5522847,1029.3622 6,1029.3622 z M 18,1029.3622 C 17.447715,1029.3622 17,1029.8099 17,1030.3622 L 17,1032.3622 19,1032.3622 19,1030.3622 C 19,1029.8099 18.552285,1029.3622 18,1029.3622 z"
       id="rect3118-6"
       inkscape:connector-curvature="0" />
    <g
       id="layer1-1"
       inkscape:label="Layer 1"
       transform="matrix(0.5489034,0,0,0.5489034,11.912077,475.25346)">
      <path
         id="path3878-3"
         d="m 12,1031.3622 c -0.984604,-0.037 -1.715215,0.7682 -2.0312502,1.625 -2.6053268,5.2106 -5.2088352,10.4177 -7.8125,15.625 -0.6178971,1.3069 0.5801099,2.9187 2,2.75 2.6100296,0 5.233602,0 7.8437502,0 2.610148,0 5.23372,0 7.84375,0 1.41989,0.1687 2.617897,-1.4431 2,-2.75 -2.603665,-5.2073 -5.207173,-10.4144 -7.8125,-15.625 -0.316035,-0.8568 -1.046646,-1.6622 -2.03125,-1.625 z"
         style="fill:#f39c12;fill-opacity:1;fill-rule:nonzero;stroke:none"
         inkscape:connector-curvature="0" />
      <path
         id="path3878"
         transform="translate(0,1028.3622)"
         d="M 12,2 C 11.015396,1.9628 10.284785,2.7682 9.96875,3.625 7.3634232,8.8356 4.7599148,14.0427 2.15625,19.25 c -0.6178971,1.3069 0.5801099,2.9187 2,2.75 2.6100296,-0.0034 5.233602,-0.0013 7.84375,0 2.610148,-0.0013 5.23372,-0.0033 7.84375,0 1.41989,0.1687 2.617897,-1.4431 2,-2.75 C 19.240085,14.0427 16.636577,8.8356 14.03125,3.625 13.715215,2.7682 12.984604,1.9628 12,2 z"
         style="fill:#f1c40f;fill-opacity:1;fill-rule:nonzero;stroke:none"
         inkscape:connector-curvature="0" />
      <path
         transform="translate(0,1028.3622)"
         id="path3872-2"
         d="m 12,8 c -0.552285,0 -1,0.4477 -1,1 l 0.5,7 1,0 L 13,9 C 13,8.4477 12.552285,8 12,8 z m 0,9 c -0.552285,0 -1,0.4477 -1,1 0,0.5523 0.447715,1 1,1 0.552285,0 1,-0.4477 1,-1 0,-0.5523 -0.447715,-1 -1,-1 z"
         style="fill:#34495e;fill-opacity:1;fill-rule:nonzero;stroke:none"
         inkscape:connector-curvature="0" />
    </g>
  </g>
</svg>
